<?xml version="1.0" encoding="UTF-8"?>
<svg xmlns="http://www.w3.org/2000/svg" xmlns:xlink="http://www.w3.org/1999/xlink" width="245.82pt" height="65.81pt" viewBox="0 0 245.82 65.81" version="1.1">
<defs>
<clipPath id="clip1">
  <path d="M 112 0 L 245.820313 0 L 245.820313 65.808594 L 112 65.808594 Z M 112 0 "/>
</clipPath>
<clipPath id="clip2">
  <path d="M 2 0 L 130 0 L 130 65.808594 L 2 65.808594 Z M 2 0 "/>
</clipPath>
<clipPath id="clip3">
  <path d="M 0 0 L 128 0 L 128 65.808594 L 0 65.808594 Z M 0 0 "/>
</clipPath>
</defs>
<g id="surface1">
<g clip-path="url(#clip1)" clip-rule="nonzero">
<path style=" stroke:none;fill-rule:nonzero;fill:rgb(14.898682%,56.098938%,80.799866%);fill-opacity:1;" d="M 112.105469 65.808594 L 245.824219 65.808594 L 245.824219 0 L 112.105469 0 Z M 112.105469 65.808594 "/>
</g>
<g clip-path="url(#clip2)" clip-rule="nonzero">
<path style=" stroke:none;fill-rule:nonzero;fill:rgb(100%,100%,100%);fill-opacity:1;" d="M 126.347656 28.953125 C 119.695313 25.082031 117.640625 23.753906 121.144531 20.609375 C 124.65625 17.460938 134.9375 10.484375 126.953125 0 L 2.429688 0 L 2.429688 65.808594 L 125.664063 65.808594 C 125.664063 65.808594 124.171875 61.011719 126.226563 58.472656 C 128.285156 55.933594 127.558594 54.117188 123.808594 52.421875 C 120.058594 50.730469 125.019531 48.433594 126.226563 48.066406 C 127.4375 47.703125 128.648438 45.042969 124.535156 43.230469 C 120.421875 41.414063 123.445313 39.117188 125.261719 38.027344 C 127.074219 36.9375 133.003906 32.824219 126.347656 28.953125 "/>
</g>
<g clip-path="url(#clip3)" clip-rule="nonzero">
<path style=" stroke:none;fill-rule:nonzero;fill:rgb(14.498901%,23.899841%,52.89917%);fill-opacity:1;" d="M 123.921875 28.953125 C 117.265625 25.082031 115.210938 23.753906 118.71875 20.609375 C 122.226563 17.460938 132.507813 10.484375 124.523438 0 L 0 0 L 0 65.808594 L 123.234375 65.808594 C 123.234375 65.808594 121.742188 61.011719 123.796875 58.472656 C 125.855469 55.933594 125.128906 54.117188 121.378906 52.421875 C 117.628906 50.730469 122.589844 48.433594 123.796875 48.066406 C 125.007813 47.703125 126.21875 45.042969 122.105469 43.230469 C 117.992188 41.414063 121.015625 39.117188 122.832031 38.027344 C 124.644531 36.9375 130.574219 32.824219 123.921875 28.953125 "/>
</g>
<path style=" stroke:none;fill-rule:nonzero;fill:rgb(100%,100%,100%);fill-opacity:1;" d="M 158.378906 43.785156 C 157.359375 43.785156 156.445313 43.683594 155.628906 43.488281 C 154.816406 43.289063 154.097656 43.003906 153.476563 42.628906 C 152.855469 42.257813 152.328125 41.800781 151.894531 41.261719 C 151.457031 40.722656 151.109375 40.117188 150.84375 39.4375 C 150.632813 38.894531 150.480469 38.292969 150.386719 37.636719 C 150.296875 36.976563 150.25 36.238281 150.25 35.425781 L 150.25 23.964844 L 153.8125 23.964844 L 153.8125 35.105469 C 153.8125 36.480469 153.976563 37.554688 154.304688 38.332031 C 154.675781 39.195313 155.210938 39.816406 155.921875 40.199219 C 156.628906 40.582031 157.460938 40.773438 158.421875 40.773438 C 159.382813 40.773438 160.214844 40.582031 160.921875 40.199219 C 161.628906 39.816406 162.167969 39.195313 162.535156 38.332031 C 162.867188 37.554688 163.03125 36.480469 163.03125 35.105469 L 163.03125 23.964844 L 166.59375 23.964844 L 166.59375 35.425781 C 166.59375 36.238281 166.546875 36.976563 166.457031 37.636719 C 166.363281 38.292969 166.210938 38.894531 165.996094 39.4375 C 165.734375 40.117188 165.382813 40.722656 164.945313 41.261719 C 164.503906 41.800781 163.964844 42.257813 163.328125 42.628906 C 162.695313 43.003906 161.964844 43.289063 161.140625 43.488281 C 160.316406 43.683594 159.394531 43.785156 158.378906 43.785156 "/>
<path style=" stroke:none;fill-rule:nonzero;fill:rgb(100%,100%,100%);fill-opacity:1;" d="M 174.738281 43.421875 L 171.175781 43.421875 L 171.175781 23.964844 L 183.5625 23.964844 L 183.5625 26.945313 L 174.738281 26.945313 L 174.738281 31.976563 L 182.285156 31.976563 L 182.285156 34.957031 L 174.738281 34.957031 "/>
<path style=" stroke:none;fill-rule:nonzero;fill:rgb(100%,100%,100%);fill-opacity:1;" d="M 192.011719 32.910156 C 192.828125 32.910156 193.515625 32.871094 194.085938 32.800781 C 194.652344 32.726563 195.128906 32.617188 195.515625 32.472656 C 196.234375 32.199219 196.730469 31.828125 197.007813 31.359375 C 197.285156 30.890625 197.421875 30.347656 197.421875 29.738281 C 197.421875 29.214844 197.3125 28.75 197.09375 28.347656 C 196.875 27.949219 196.503906 27.628906 195.980469 27.398438 C 195.644531 27.242188 195.214844 27.128906 194.703125 27.054688 C 194.1875 26.984375 193.554688 26.945313 192.796875 26.945313 L 190.253906 26.945313 L 190.253906 32.910156 Z M 201.085938 29.808594 C 201.085938 31.167969 200.710938 32.320313 199.960938 33.265625 C 199.207031 34.210938 198.046875 34.910156 196.476563 35.367188 L 196.476563 35.421875 L 202.265625 43.421875 L 197.988281 43.421875 L 192.695313 35.890625 L 190.253906 35.890625 L 190.253906 43.421875 L 186.691406 43.421875 L 186.691406 23.964844 L 192.609375 23.964844 C 193.585938 23.964844 194.5 24.019531 195.34375 24.132813 C 196.1875 24.242188 196.90625 24.410156 197.507813 24.632813 C 198.652344 25.070313 199.535156 25.71875 200.15625 26.574219 C 200.777344 27.433594 201.085938 28.511719 201.085938 29.808594 "/>
<path style=" stroke:none;fill-rule:nonzero;fill:rgb(100%,100%,100%);fill-opacity:1;" d="M 215.527344 33.011719 C 216.921875 34.996094 218.054688 36.761719 218.929688 38.304688 L 219.015625 38.304688 C 218.898438 35.773438 218.839844 33.929688 218.839844 32.777344 L 218.839844 23.964844 L 222.402344 23.964844 L 222.402344 43.421875 L 218.667969 43.421875 L 212.328125 34.464844 C 211.210938 32.914063 210.058594 31.113281 208.867188 29.070313 L 208.777344 29.070313 C 208.894531 31.453125 208.953125 33.300781 208.953125 34.609375 L 208.953125 43.421875 L 205.390625 43.421875 L 205.390625 23.964844 L 209.128906 23.964844 "/>
<path style=" stroke:none;fill-rule:nonzero;fill:rgb(100%,100%,100%);fill-opacity:1;" d="M 27 26.609375 C 26.03125 26.609375 25.136719 26.773438 24.316406 27.089844 C 23.496094 27.410156 22.792969 27.875 22.207031 28.488281 C 21.621094 29.097656 21.164063 29.851563 20.832031 30.75 C 20.503906 31.644531 20.339844 32.671875 20.339844 33.824219 C 20.339844 34.96875 20.488281 35.972656 20.789063 36.839844 C 21.089844 37.710938 21.523438 38.429688 22.082031 39.011719 C 22.648438 39.597656 23.332031 40.035156 24.140625 40.328125 C 24.953125 40.628906 25.871094 40.773438 26.898438 40.773438 C 27.632813 40.773438 28.386719 40.714844 29.152344 40.601563 C 29.917969 40.484375 30.632813 40.3125 31.304688 40.089844 L 31.304688 43.160156 C 30.625 43.355469 29.894531 43.503906 29.105469 43.617188 C 28.324219 43.726563 27.507813 43.785156 26.664063 43.785156 C 25.015625 43.785156 23.566406 43.550781 22.316406 43.078125 C 21.066406 42.609375 20.023438 41.945313 19.183594 41.085938 C 18.34375 40.226563 17.714844 39.203125 17.292969 38.003906 C 16.871094 36.804688 16.660156 35.488281 16.660156 34.042969 C 16.660156 32.558594 16.886719 31.179688 17.335938 29.910156 C 17.789063 28.644531 18.4375 27.542969 19.285156 26.609375 C 20.132813 25.679688 21.195313 24.949219 22.46875 24.417969 C 23.746094 23.882813 25.1875 23.609375 26.796875 23.601563 C 27.621094 23.601563 28.402344 23.65625 29.136719 23.769531 C 29.875 23.878906 30.539063 24.039063 31.128906 24.238281 L 31.128906 27.265625 C 30.351563 27.023438 29.628906 26.851563 28.960938 26.757813 C 28.292969 26.660156 27.640625 26.609375 27 26.609375 "/>
<path style=" stroke:none;fill-rule:nonzero;fill:rgb(100%,100%,100%);fill-opacity:1;" d="M 44.113281 26.609375 C 43.144531 26.609375 42.25 26.773438 41.429688 27.089844 C 40.613281 27.410156 39.910156 27.875 39.324219 28.488281 C 38.738281 29.097656 38.277344 29.851563 37.949219 30.75 C 37.617188 31.644531 37.453125 32.671875 37.453125 33.824219 C 37.453125 34.96875 37.605469 35.972656 37.90625 36.839844 C 38.207031 37.710938 38.636719 38.429688 39.199219 39.011719 C 39.761719 39.597656 40.449219 40.035156 41.257813 40.328125 C 42.066406 40.628906 42.984375 40.773438 44.011719 40.773438 C 44.75 40.773438 45.5 40.714844 46.265625 40.601563 C 47.03125 40.484375 47.75 40.3125 48.417969 40.089844 L 48.417969 43.160156 C 47.738281 43.355469 47.007813 43.503906 46.222656 43.617188 C 45.4375 43.726563 44.625 43.785156 43.78125 43.785156 C 42.132813 43.785156 40.683594 43.550781 39.433594 43.078125 C 38.179688 42.609375 37.136719 41.945313 36.296875 41.085938 C 35.460938 40.226563 34.828125 39.203125 34.40625 38.003906 C 33.988281 36.804688 33.777344 35.488281 33.777344 34.042969 C 33.777344 32.558594 34 31.179688 34.453125 29.910156 C 34.902344 28.644531 35.550781 27.542969 36.402344 26.609375 C 37.25 25.679688 38.308594 24.949219 39.585938 24.417969 C 40.859375 23.882813 42.300781 23.609375 43.910156 23.601563 C 44.734375 23.601563 45.515625 23.65625 46.25 23.769531 C 46.988281 23.878906 47.652344 24.039063 48.242188 24.238281 L 48.242188 27.265625 C 47.46875 27.023438 46.746094 26.851563 46.078125 26.757813 C 45.410156 26.660156 44.753906 26.609375 44.113281 26.609375 "/>
<path style=" stroke:none;fill-rule:nonzero;fill:rgb(100%,100%,100%);fill-opacity:1;" d="M 55.617188 31.976563 L 63.582031 31.976563 L 63.582031 23.964844 L 67.144531 23.964844 L 67.144531 43.421875 L 63.582031 43.421875 L 63.582031 34.957031 L 55.617188 34.957031 L 55.617188 43.421875 L 52.054688 43.421875 L 52.054688 23.964844 L 55.617188 23.964844 "/>
<path style=" stroke:none;fill-rule:nonzero;fill:rgb(100%,100%,100%);fill-opacity:1;" d="M 75.121094 23.964844 L 75.121094 40.441406 L 84.222656 40.441406 L 84.222656 43.421875 L 71.558594 43.421875 L 71.558594 23.964844 "/>
<path style=" stroke:none;fill-rule:nonzero;fill:rgb(100%,100%,100%);fill-opacity:1;" d="M 94.449219 28.648438 C 93.765625 30.683594 93.160156 32.382813 92.628906 33.75 L 91.960938 35.484375 L 96.992188 35.484375 L 96.328125 33.75 C 95.800781 32.371094 95.191406 30.671875 94.507813 28.648438 Z M 98.140625 38.460938 L 90.8125 38.460938 L 88.90625 43.421875 L 85.113281 43.421875 L 94.460938 22.027344 L 103.8125 43.421875 L 100.046875 43.421875 "/>
</g>
</svg>
